<svg xmlns="http://www.w3.org/2000/svg" viewBox="0 0 200 200"><defs><style>.cls-1{fill:#00bfad;}.cls-2{fill:#fff;}</style></defs><title>comp</title><g id="Layer_2" data-name="Layer 2"><g id="Layer_1-2" data-name="Layer 1"><g id="Layer_1-3" data-name="Layer 1"><circle class="cls-1" cx="100.13" cy="104" r="95"/><circle class="cls-2" cx="100.13" cy="129.83" r="4.28"/><rect class="cls-2" x="44" y="54" width="112" height="66"/><path class="cls-2" d="M100,0A100,100,0,1,0,200,100h0A100,100,0,0,0,100,0Zm64,131.94c0,3.85-3.13,6.06-7,6.06H113c1.36,8,6.94,13.23,10.94,13.25V154H76v-2.84c4,0,9.78-5.16,11.14-13.16H43.38c-3.85,0-7.38-2.21-7.38-6.06V54.18C36,50.33,39.53,48,43.38,48H157c3.85,0,7,2.33,7,6.18Z"/></g></g></g></svg>