<svg xmlns="http://www.w3.org/2000/svg" viewBox="0 0 578.31 489.03"><defs><style>.cls-1{fill:#fff;}</style></defs><title>git</title><g id="Layer_2" data-name="Layer 2"><g id="Capa_1" data-name="Capa 1"><path class="cls-1" d="M533.32,115.74c.53-26.52-5.29-53.33-10-79.73-1.63-9.09-4.93-17.87-8.18-26.49C512.67,3,505.44-1.09,498.79.33a113.83,113.83,0,0,0-11.94,3C447.52,16.31,411.1,35.23,376.12,57.22c-4.7,2.95-11.54,4-17.21,3.6-13.57-1-27-4.37-40.57-5-33.58-1.59-67.09-.57-100.37,5.25-4.63.81-10.72,0-14.56-2.47C165.27,33.9,125.58,12.77,80.94.91,74.24-.87,67.34.07,65.64,2.74a19.83,19.83,0,0,0-2.49,5.13C58.34,24.81,52.62,41.67,49.82,59c-3.34,20.65-6.55,41.93-5,62.57,1,13-2.58,20.94-9.67,30C11.41,182.12.7,217.22,0,255.71a298.25,298.25,0,0,0,13.82,96.47c15.35,48.22,45,84.41,89.65,108,36.71,19.36,76.71,26.82,117.64,28.26,36.89,1.29,73.86.2,110.79.4s73.53-3.09,108.95-14.63S507,444,530.82,414.67c34.38-42.33,45.08-92.19,47.28-145,1.68-40.36-6.54-78.33-30.18-111.35C538.33,145,533,133.46,533.32,115.74ZM462,425c-15.88,13.73-35.29,20.23-55.16,25-39,9.32-78.69,11.64-118.52,9.9-39.37,1.71-78.29-.75-116.59-9.76-28.26-6.65-54.05-17.82-72-42.08C71.13,369.44,63.82,296,111.1,255.89c12.06-10.22,25.5-16.71,41.39-17.72,17.53-1.12,35.07-3.3,52.6-3.1,44.2.53,88.38,2.72,132.57,3.05,20.18.15,40.51-4.56,60.54-3.35,18.21,1.1,37.35,4.45,53.88,11.78,27.55,12.21,42.37,37,46.85,66C505.6,355.69,496.8,394.95,462,425Z"/><ellipse class="cls-1" cx="390.03" cy="340.91" rx="42.12" ry="56.3"/><ellipse class="cls-1" cx="189.03" cy="340.91" rx="42.13" ry="56.3"/></g></g></svg>