<svg xmlns="http://www.w3.org/2000/svg" viewBox="0 0 200 200"><defs><style>.cls-1{fill:#00bfad;}.cls-2{fill:#fff;}</style></defs><title>mouse</title><g id="Layer_2" data-name="Layer 2"><g id="Layer_1-2" data-name="Layer 1"><circle class="cls-1" cx="100" cy="100" r="95"/><g id="Layer_1-3" data-name="Layer 1"><path class="cls-2" d="M100,0A100,100,0,1,0,200,100h0A100,100,0,0,0,100,0Zm4.51,67.19a6.42,6.42,0,0,1,1.79,4.62V83A6.43,6.43,0,0,1,100,89.57h-.09A6.57,6.57,0,0,1,93.3,83V71.81a6.58,6.58,0,0,1,11.21-4.62ZM62.3,73.83c0-15.92,13.22-28.7,29.68-28.7H96.3V61.51a8.45,8.45,0,0,0-6,8.24V85.33a8.45,8.45,0,0,0,6,8.24v8.56h-34Zm76,52.34c0,15.92-13.83,29-30.28,29H92c-16.46,0-29.68-13-29.68-29v-22h76v22Zm0-24h-34V93.61c3-1.42,6-4.58,6-8.24V69.79c0-3.66-3-6.82-6-8.24V45.13H108c16.45,0,30.28,12.78,30.28,28.7v28.34Z"/></g></g></g></svg>