<svg xmlns="http://www.w3.org/2000/svg" viewBox="0 0 200 200"><defs><style>.cls-1{fill:#00bfad;}.cls-2{fill:#fff;}</style></defs><title>server</title><g id="Layer_2" data-name="Layer 2"><g id="Layer_1-2" data-name="Layer 1"><circle class="cls-1" cx="99.5" cy="104" r="95"/><g id="Layer_1-3" data-name="Layer 1"><circle class="cls-2" cx="99.87" cy="138.95" r="8.71"/><path class="cls-2" d="M129.16,88h0Z"/><path class="cls-2" d="M132.63,72.74v.57a3.47,3.47,0,0,1-.18.88l-.06.17a1.32,1.32,0,0,1-.07.17,4.11,4.11,0,0,1-.88,1.32l-.19.18-.25.21-.12.09-.15.1-.16.1-.16.09-.24.12c-.05,0-.11.1-.16.12a1,1,0,0,1-.26.15h0a1.11,1.11,0,0,0-.27,0H71.25a4.12,4.12,0,0,1-4.1-4.12,3.83,3.83,0,0,1,1.2-2.79A4,4,0,0,1,71.25,69h57.33c.07,0,.14-.05.21-.05h.41l.4.07.22.06.25.08.26.11.18.09.14.08.13.07h0l.23.16.18.14.26.24h0l.08.09.18.21.16.23.15.24.1.2h0l.06.12.08.17.09.27v.11h0v.42a1.33,1.33,0,0,1,0,.15v.15S132.63,72.68,132.63,72.74Z"/><path class="cls-2" d="M132.63,111v.39a3.76,3.76,0,0,1-.19,1.07.2.2,0,0,1-.06.17,1.32,1.32,0,0,1-.07.17,4.09,4.09,0,0,1-.88,1.32,4.54,4.54,0,0,1-.44.39l-.12.09-.15.1-.16.1-.16.09-.24.12-.16.07a3.87,3.87,0,0,1-.54.17h-.14l-.36.06c-.06,0-.13-.14-.19-.13s-.14-.14-.21-.14H71.23a4,4,0,0,1-4.1-3.9s0-.07,0-.1a4,4,0,0,1,4.1-4h57.33c.07,0,.14.06.21.06l.41.07.4.09.22.07.25.09.13.06-.13-.05.26.11h.18l.14.08.09.05.09.05.23.16.18.14.26.24.18.18.18.21.16.23.15.24.1.2h0l.06.12.08.17.09.27a.35.35,0,0,0,.07.25c.07.08,0,.07,0,.1v.21a1.33,1.33,0,0,1,0,.15v.15S132.63,110.9,132.63,111Z"/><path class="cls-2" d="M132.63,91.85v.57a3.47,3.47,0,0,1-.18.88.2.2,0,0,1-.06.17,1.35,1.35,0,0,1-.07.17,4.14,4.14,0,0,1-.88,1.32l-.19.18-.25.21-.12.09-.15.1-.16.1-.16.09-.24.12-.16.07a3.15,3.15,0,0,1-.54.17h-.14l-.36.05c-.06,0-.13-.08-.19-.08s-.14-.09-.21-.09H71.24a4.07,4.07,0,0,1-4.1-4v0a3.91,3.91,0,0,1,1.2-2.82A4,4,0,0,1,71.24,88h58l.4.08.22.06.25.08.13.05.13.05h.18l.14.08.13.07h0l.23.16.18.14.26.24.09.09.08.09.18.21.16.23.15.24.1.2h0l.06.12.08.18a1,1,0,0,0,.09.27v.11h0v.42a1.4,1.4,0,0,1,0,.15v.15S132.63,91.79,132.63,91.85Z"/><path class="cls-2" d="M132.63,53.63v.57a3.49,3.49,0,0,1-.18.88.2.2,0,0,1-.06.17,1.32,1.32,0,0,1-.07.17,4.09,4.09,0,0,1-.88,1.32l-.19.18-.25.21-.12.09-.15.1-.16.1-.16.09-.24.12-.16.07a3.14,3.14,0,0,1-.54.17h-.14l-.36.06H71.24a4.16,4.16,0,0,1-4.1-4.18A3.78,3.78,0,0,1,68.34,51a4,4,0,0,1,2.9-1.06h57.33c.07,0,.14-.11.21-.11h1l.25.08.26.11.18.09h.14l.13.07h0l.23.16.18.14.26.24h0l.08.09.18.21.16.23.15.24.1.2h0l.06.12.08.18a1,1,0,0,0,.09.27v.11h0v.42a1.4,1.4,0,0,1,0,.15v.15S132.63,53.57,132.63,53.63Z"/><path class="cls-2" d="M100,0A100,100,0,1,0,200,100h0A100,100,0,0,0,100,0Zm41,153.39a5.75,5.75,0,0,1-5.64,5.62H133v5h-9v-5H75v5H67v-5H64.38A5.53,5.53,0,0,1,59,153.39V41.45A5.39,5.39,0,0,1,64.33,36h71.05A5.61,5.61,0,0,1,141,41.45V153.38Z"/><path class="cls-2" d="M132.31,112.75a4.09,4.09,0,0,1-.88,1.32,4.54,4.54,0,0,1-.44.39l-.12.09-.15.1-.16.1-.16.09-.24.12L130,115a3.87,3.87,0,0,1-.54.17h-.14l-.36.06a4.25,4.25,0,0,0,2.49-1.25A4.1,4.1,0,0,0,132.31,112.75Z"/><path class="cls-2" d="M132.6,110.64a4.06,4.06,0,0,0-2.06-3,3.26,3.26,0,0,0-.38-.18l-.13-.06.26.11h.18l.14.08.09.05.09.05.23.16.18.14.26.24.18.18.18.21.16.23.15.24.1.2h0l.06.12.08.17.09.27a.35.35,0,0,0,.07.25c.07.08,0,.07,0,.1v.21A1.33,1.33,0,0,1,132.6,110.64Z"/><path class="cls-2" d="M132.31,93.64a4.14,4.14,0,0,1-.88,1.32l-.19.18-.25.21-.12.09-.15.1-.16.1-.16.09-.24.12-.16.07a3.15,3.15,0,0,1-.54.17h-.14l-.36.05a4.25,4.25,0,0,0,2.49-1.24A4.16,4.16,0,0,0,132.31,93.64Z"/><path class="cls-2" d="M132.6,91.53A4.07,4.07,0,0,0,130,88.27l.13.05.13.05h.18l.14.08.13.07h0l.23.16.18.14.26.24.09.09.08.09.18.21.16.23.15.24.1.2h0l.06.12.08.18a1,1,0,0,0,.09.27v.11h0v.42A1.41,1.41,0,0,1,132.6,91.53Z"/><path class="cls-2" d="M132.31,74.53a4.11,4.11,0,0,1-.88,1.32l-.19.18-.25.21-.12.09-.15.1-.16.1-.16.09-.24.12c-.05,0-.11.1-.16.12a1,1,0,0,1-.26.15h0a1.11,1.11,0,0,0-.27,0H129a4.24,4.24,0,0,0,2.49-1.25A4.16,4.16,0,0,0,132.31,74.53Z"/><path class="cls-2" d="M132.6,72.42A4.06,4.06,0,0,0,130,69.16l.26.11.18.09.14.08.13.07h0l.23.16.18.14.26.24h0l.08.09.18.21.16.23.15.24.1.2h0l.06.12.08.17.09.27v.11h0v.42A1.32,1.32,0,0,1,132.6,72.42Z"/><path class="cls-2" d="M132.31,55.41a4.09,4.09,0,0,1-.88,1.32l-.19.18-.25.21-.12.09-.15.1-.16.1-.16.09-.24.12-.16.07a3.14,3.14,0,0,1-.54.17h-.14l-.36.06a4.26,4.26,0,0,0,2.49-1.24A4.14,4.14,0,0,0,132.31,55.41Z"/><path class="cls-2" d="M130.48,50.25h.07A4,4,0,0,0,130,50l.26.11Z"/><path class="cls-2" d="M132.6,53.31a4.07,4.07,0,0,0-2.06-3h.07l.13.07h0l.23.16.18.14.26.24h0l.08.09.18.21.16.23.15.24.1.2h0l.06.12.08.18a1,1,0,0,0,.09.27v.11h0V53A1.41,1.41,0,0,1,132.6,53.31Z"/><path class="cls-2" d="M132.31,55.41a4.09,4.09,0,0,1-.88,1.32l-.19.18-.25.21-.12.09-.15.1-.16.1-.16.09-.24.12-.16.07a3.14,3.14,0,0,1-.54.17h-.14l-.36.06a4.26,4.26,0,0,0,2.49-1.24A4.14,4.14,0,0,0,132.31,55.41Z"/><path class="cls-2" d="M130.48,50.25h.07A4,4,0,0,0,130,50l.26.11Z"/><path class="cls-2" d="M132.6,53.31a4.07,4.07,0,0,0-2.06-3h.07l.13.07h0l.23.16.18.14.26.24h0l.08.09.18.21.16.23.15.24.1.2h0l.06.12.08.18a1,1,0,0,0,.09.27v.11h0V53A1.41,1.41,0,0,1,132.6,53.31Z"/><path class="cls-2" d="M132.31,74.53a4.11,4.11,0,0,1-.88,1.32l-.19.18-.25.21-.12.09-.15.1-.16.1-.16.09-.24.12c-.05,0-.11.1-.16.12a1,1,0,0,1-.26.15h0a1.11,1.11,0,0,0-.27,0H129a4.24,4.24,0,0,0,2.49-1.25A4.16,4.16,0,0,0,132.31,74.53Z"/><path class="cls-2" d="M132.6,72.42A4.06,4.06,0,0,0,130,69.16l.26.11.18.09.14.08.13.07h0l.23.16.18.14.26.24h0l.08.09.18.21.16.23.15.24.1.2h0l.06.12.08.17.09.27v.11h0v.42A1.32,1.32,0,0,1,132.6,72.42Z"/><path class="cls-2" d="M132.31,93.64a4.14,4.14,0,0,1-.88,1.32l-.19.18-.25.21-.12.09-.15.1-.16.1-.16.09-.24.12-.16.07a3.15,3.15,0,0,1-.54.17h-.14l-.36.05a4.25,4.25,0,0,0,2.49-1.24A4.16,4.16,0,0,0,132.31,93.64Z"/><path class="cls-2" d="M132.6,91.53A4.07,4.07,0,0,0,130,88.27l.13.05.13.05h.18l.14.08.13.07h0l.23.16.18.14.26.24.09.09.08.09.18.21.16.23.15.24.1.2h0l.06.12.08.18a1,1,0,0,0,.09.27v.11h0v.42A1.41,1.41,0,0,1,132.6,91.53Z"/><path class="cls-2" d="M132.31,112.75a4.09,4.09,0,0,1-.88,1.32,4.54,4.54,0,0,1-.44.39l-.12.09-.15.1-.16.1-.16.09-.24.12L130,115a3.87,3.87,0,0,1-.54.17h-.14l-.36.06a4.25,4.25,0,0,0,2.49-1.25A4.1,4.1,0,0,0,132.31,112.75Z"/><path class="cls-2" d="M132.6,110.64a4.06,4.06,0,0,0-2.06-3,3.26,3.26,0,0,0-.38-.18l-.13-.06.26.11h.18l.14.08.09.05.09.05.23.16.18.14.26.24.18.18.18.21.16.23.15.24.1.2h0l.06.12.08.17.09.27a.35.35,0,0,0,.07.25c.07.08,0,.07,0,.1v.21A1.33,1.33,0,0,1,132.6,110.64Z"/><path class="cls-2" d="M132.58,53.17v-.42h0v-.11a1,1,0,0,0-.09-.27l-.08-.18-.06-.12h0l-.1-.2-.15-.24-.16-.23-.18-.21-.08-.09h0l-.26-.24-.18-.14-.23-.16h0l-.13-.07h-.07a4.07,4.07,0,0,1,2.06,3A1.41,1.41,0,0,0,132.58,53.17Zm-2.29-3L130,50a4,4,0,0,1,.51.24h-.07Zm1.14,6.54a4.26,4.26,0,0,1-2.49,1.24l.36-.06h.14a3.87,3.87,0,0,0,.54-.17l.16-.07.24-.12.16-.09.16-.1.15-.1.12-.09.25-.21.19-.18a4.09,4.09,0,0,0,.88-1.32,4.14,4.14,0,0,1-.85,1.26Zm1.15,15.58v-.42h0v-.11l-.09-.27-.08-.17-.06-.12h0l-.1-.2-.15-.24-.16-.23-.18-.21-.08-.09h0l-.26-.24-.18-.14-.23-.16h0l-.13-.07-.14-.08-.18-.09-.26-.11a4.06,4.06,0,0,1,2.57,3.26,1.32,1.32,0,0,0-.29-.32Zm-1.15,3.53a4.23,4.23,0,0,1-2.49,1.24l.36-.05h.14a1.11,1.11,0,0,1,.27,0h0a1,1,0,0,0,.26-.15l.16-.1.24-.13.16-.1.16-.1.15-.11.12-.09.25-.21.19-.18a4.11,4.11,0,0,0,.88-1.32,4.13,4.13,0,0,1-.84,1.29Zm1.15,15.58V91h0v-.11a1,1,0,0,0-.09-.27l-.08-.18-.06-.12h0l-.1-.2-.15-.24-.16-.23-.18-.21-.08-.09-.09-.09-.26-.24-.18-.14-.23-.16h0l-.13-.07-.14-.08h-.18l-.13-.05-.13-.05a4.07,4.07,0,0,1,2.57,3.26,1.41,1.41,0,0,0-.2-.32Zm-1.15,3.53a4.25,4.25,0,0,1-2.49,1.24l.36-.05h.14A3.9,3.9,0,0,0,130,96l.16-.07.24-.12.16-.09.16-.1.15-.1.12-.09.25-.21.19-.18a4.14,4.14,0,0,0,.88-1.32,4.16,4.16,0,0,1-.85,1.25Zm1.15,15.58v-.31a.41.41,0,0,0-.07-.25l-.09-.27-.08-.17-.06-.12h0l-.1-.2L132,109l-.16-.23-.18-.21-.18-.18-.26-.24-.18-.14-.23-.16-.09-.05-.09-.05-.14-.08h-.18l-.26-.11.13.06a3.26,3.26,0,0,1,.38.18,4.06,4.06,0,0,1,2.06,3,1.33,1.33,0,0,0-.07-.24ZM131.43,114a4.25,4.25,0,0,1-2.49,1.25l.36-.06h.14a3.87,3.87,0,0,0,.54-.17l.16-.07.24-.12.16-.09.16-.1.15-.1.12-.09a4.54,4.54,0,0,0,.44-.39,4.09,4.09,0,0,0,.88-1.32,4.1,4.1,0,0,1-.85,1.22Zm-2.69-64.25h0Zm0,38.22h0Z"/><path class="cls-2" d="M130.61,107.65l-.14-.08h.23Zm-.32-19.28-.13-.05.13.06h0Zm-.13,19.06.13.05-.26-.11ZM130,57.68a3.87,3.87,0,0,1-.54.17,3.14,3.14,0,0,0,.56-.16Zm0,38.22a3.9,3.9,0,0,1-.54.17,3.14,3.14,0,0,0,.56-.16ZM129.16,88h0Z"/></g></g></g></svg>