<svg xmlns="http://www.w3.org/2000/svg" viewBox="0 0 410 410"><defs><style>.cls-1{fill:none;stroke:#fff;stroke-width:20px;}</style></defs><title>web</title><g id="Layer_2" data-name="Layer 2"><g id="Layer_1-2" data-name="Layer 1"><path class="cls-1" d="M204,10C96.31,10.55,9.45,98.3,10,206s88.3,194.55,196,194,194.55-88.3,194-196C399.45,97.08,312.91,10.55,206,10Zm1,0V400M400,205H10M54,85a260,260,0,0,0,302,0m0,240a260,260,0,0,0-302,0M190,15C84.51,104.09,71.22,261.82,160.3,367.3A250,250,0,0,0,190,397m30,0c105.49-89.09,118.78-246.82,29.7-352.3A250,250,0,0,0,220,15"/></g></g></svg>